<?xml version="1.0" encoding="UTF-8" standalone="no"?>
<!-- Generator: Adobe Illustrator 16.0.4, SVG Export Plug-In . SVG Version: 6.00 Build 0)  -->

<svg
   xmlns:osb="http://www.openswatchbook.org/uri/2009/osb"
   xmlns:dc="http://purl.org/dc/elements/1.1/"
   xmlns:cc="http://creativecommons.org/ns#"
   xmlns:rdf="http://www.w3.org/1999/02/22-rdf-syntax-ns#"
   xmlns:svg="http://www.w3.org/2000/svg"
   xmlns="http://www.w3.org/2000/svg"
   xmlns:sodipodi="http://sodipodi.sourceforge.net/DTD/sodipodi-0.dtd"
   xmlns:inkscape="http://www.inkscape.org/namespaces/inkscape"
   version="1.1"
   id="Layer_1"
   x="0px"
   y="0px"
   width="1088.3962"
   height="273.73575"
   viewBox="0 0 1088.3963 273.73575"
   enable-background="new 0 0 1077 361"
   xml:space="preserve"
   inkscape:version="0.91 r13725"
   sodipodi:docname="fabric8_logo_white.svg"><metadata
     id="metadata4793"><rdf:RDF><cc:Work
         rdf:about=""><dc:format>image/svg+xml</dc:format><dc:type
           rdf:resource="http://purl.org/dc/dcmitype/StillImage" /><dc:title></dc:title></cc:Work></rdf:RDF></metadata><defs
     id="defs4791"><linearGradient
       id="linearGradient4923"
       osb:paint="solid"><stop
         style="stop-color:#000000;stop-opacity:1;"
         offset="0"
         id="stop4925" /></linearGradient></defs><sodipodi:namedview
     pagecolor="#ffffff"
     bordercolor="#666666"
     borderopacity="1"
     objecttolerance="10"
     gridtolerance="10"
     guidetolerance="10"
     inkscape:pageopacity="0"
     inkscape:pageshadow="2"
     inkscape:window-width="1916"
     inkscape:window-height="1037"
     id="namedview4789"
     showgrid="false"
     inkscape:zoom="0.92508213"
     inkscape:cx="-200.47008"
     inkscape:cy="176.49907"
     inkscape:window-x="0"
     inkscape:window-y="20"
     inkscape:window-maximized="0"
     inkscape:current-layer="Layer_1"
     fit-margin-top="0"
     fit-margin-left="0"
     fit-margin-right="0"
     fit-margin-bottom="0" /><g
     id="g4773"
     transform="matrix(1.5,0,0,1.5,-484.551,-224.04002)"
     style="fill:#ffffff;stroke:none"><path
       style="fill:#ffffff;stroke:none"
       inkscape:connector-curvature="0"
       id="path4775"
       d="m 323.034,212.026 19.17,-3.914 0,-22.813 c 0,-20.937 8.417,-35.939 36.071,-35.939 11.298,0 20.839,1.439 30.871,5.53 l 0,19.145 c -0.229,0 -22.006,-0.228 -22.006,-0.228 -12.977,-0.228 -12.671,6.27 -12.671,19.093 l 0,15.213 27.763,0 0,24.657 -27.763,0 0,97.691 -32.265,0 0,-97.691 -19.17,0 0,-20.744 z" /><path
       style="fill:#ffffff;stroke:none"
       inkscape:connector-curvature="0"
       id="path4777"
       d="m 414.729,287.757 c 0,-17.796 9.617,-33.561 35.854,-33.561 0,0 35.941,0.239 35.941,0 0,0 0.229,-7.601 0,-7.829 0,-13.057 -6.106,-15.104 -16.355,-15.104 -10.633,0 -41.328,1.917 -51.383,2.639 l 0,-19.912 c 16.105,-6.259 32.932,-8.079 55.743,-8.176 26.345,-0.113 44.251,8.995 44.251,39.273 l 0,85.374 -25.475,0 -6.781,-13.479 c -1.352,2.663 -18.526,15.242 -37.215,14.86 -23.545,-0.632 -34.58,-16.658 -34.58,-32.57 l 0,-11.515 z m 43.705,18.166 c 13.5,0 28.09,-9.473 28.09,-9.473 l 0,-22.433 -29.604,2.293 c -8.518,0.796 -9.924,7.106 -9.924,12.454 l 0,5.94 c -10e-4,10.171 5.506,11.219 11.438,11.219 z" /><path
       style="fill:#ffffff;stroke:none"
       inkscape:connector-curvature="0"
       id="path4779"
       d="m 537.905,149.586 32.049,0 0,64.63 c 11.21,-5.103 26.793,-7.947 37.163,-7.947 33.902,0 39.943,25.55 39.943,63.595 0,37.105 -9.836,61.979 -39.943,61.979 -14.525,0 -29.29,-7.556 -36.934,-13.706 l -5.736,12.324 -26.542,0 0,-180.875 z m 60.849,154.682 c 10.412,0 16.051,-8.387 16.051,-35.667 0,-31.234 -5.879,-37.043 -16.051,-37.043 -11.156,0 -20.142,1.332 -28.57,4.603 l 0,60.562 c 6.878,4.438 16.455,7.545 28.57,7.545 z" /><path
       style="fill:#ffffff;stroke:none"
       inkscape:connector-curvature="0"
       id="path4781"
       d="m 666.013,208.112 27.194,0 5.069,15.44 c 8.474,-8.187 19.881,-16.692 35.091,-16.692 5.291,0 10.372,0.204 13.632,1.457 l 0,31.143 c -3.26,-0.313 -10.741,-0.632 -17.688,-0.632 -13.346,0 -23.061,2.185 -31.034,13.621 l 0,78.012 -32.264,0 0,-122.349 z" /><path
       style="fill:#ffffff;stroke:none"
       inkscape:connector-curvature="0"
       id="path4783"
       d="m 760.301,169.522 c 0,-3.459 1.844,-5.757 5.518,-5.757 l 24.197,0 c 3.459,0 5.172,2.532 5.172,5.757 l 0,20.424 c 0,3.454 -1.943,5.297 -5.172,5.297 l -24.197,0 c -3.213,0 -5.518,-2.07 -5.518,-5.297 l 0,-20.424 z m 1.158,38.59 32.266,0 0,122.349 -32.266,0 0,-122.349 z" /><path
       style="fill:#ffffff;stroke:none"
       inkscape:connector-curvature="0"
       id="path4785"
       d="m 852.914,206.969 c 11.984,0 36.158,0.706 56.343,7.248 l 0,20.043 c 0,0 -22.017,-1.371 -42.526,-1.371 -14.841,0 -21.875,0.882 -21.875,36.952 0,31.32 5.291,35.853 21.875,35.853 21.198,0 44.131,-2.155 44.131,-2.155 l 0,20.248 c -17.895,9.103 -38.82,7.601 -57.947,7.828 -22.8,0 -40.323,-11.93 -40.323,-62.451 -10e-4,-50.407 16.822,-62.195 40.322,-62.195 z" /><path
       style="fill:#ffffff;stroke:none"
       inkscape:connector-curvature="0"
       id="path4787"
       d="m 930.783,274.933 c 0,-14.013 6.946,-23.434 18.188,-25.92 -16.029,-6.975 -18.188,-20.299 -18.188,-33.527 l 0,-14.975 c 0,-31.632 19.354,-39.853 43.073,-39.853 l 34.914,0 c 26.052,0 39.857,11.003 39.857,39.984 l 0,12.312 c 0.107,5.701 -1.57,24.032 -17.273,26.728 14.341,2.68 17.381,21.665 17.273,31.564 l 0,19.804 c 0,34.142 -21.165,39.411 -40.087,39.411 l -34.685,0 c -41.907,0 -43.073,-26.291 -43.073,-38.647 l 0,-16.881 z m 47.642,-44.007 23.073,0 c 13.143,0 14.875,-6.764 14.875,-14.286 l 0,-10.86 c 0,-13.751 -5.921,-16.687 -15.08,-16.687 l -21.721,0 c -10.438,0 -16.533,1.53 -16.533,16.687 l 0,10.861 c 0,11.885 7.555,14.285 15.386,14.285 z m 1.147,71.083 21.622,0 c 10.033,0 15.179,-4.763 15.179,-13.813 l 0,-15.953 c 0,-9.206 -5.115,-14.36 -14.625,-14.36 l -23.323,0 c -10.087,0 -15.386,4.5 -15.386,14.36 l 0,15.953 c 0,9.506 4.524,13.813 16.533,13.813 z" /></g></svg>